<mxfile host="65bd71144e">
    <diagram id="WP671QPCbK7EA0bMCqIm" name="第1頁">
        <mxGraphModel dx="678" dy="284" grid="1" gridSize="10" guides="1" tooltips="1" connect="1" arrows="1" fold="1" page="1" pageScale="1" pageWidth="827" pageHeight="1169" math="0" shadow="0">
            <root>
                <mxCell id="0"/>
                <mxCell id="1" parent="0"/>
                <mxCell id="2" value="肯德基APP" style="swimlane;whiteSpace=wrap;html=1;" vertex="1" parent="1">
                    <mxGeometry x="248" y="40" width="330" height="630" as="geometry"/>
                </mxCell>
                <mxCell id="3" value="顧客" style="shape=umlActor;verticalLabelPosition=bottom;verticalAlign=top;html=1;outlineConnect=0;" vertex="1" parent="1">
                    <mxGeometry x="150" y="180" width="50" height="90" as="geometry"/>
                </mxCell>
                <mxCell id="4" value="餐廳人員" style="shape=umlActor;verticalLabelPosition=bottom;verticalAlign=top;html=1;outlineConnect=0;" vertex="1" parent="1">
                    <mxGeometry x="150" y="360" width="50" height="90" as="geometry"/>
                </mxCell>
                <mxCell id="5" value="系統開發團隊" style="shape=umlActor;verticalLabelPosition=bottom;verticalAlign=top;html=1;outlineConnect=0;" vertex="1" parent="1">
                    <mxGeometry x="620" y="540" width="50" height="90" as="geometry"/>
                </mxCell>
                <mxCell id="6" value="餐廳端工作人員" style="shape=umlActor;verticalLabelPosition=bottom;verticalAlign=top;html=1;outlineConnect=0;" vertex="1" parent="1">
                    <mxGeometry x="620" y="370" width="50" height="90" as="geometry"/>
                </mxCell>
                <mxCell id="7" value="管理端工作人員" style="shape=umlActor;verticalLabelPosition=bottom;verticalAlign=top;html=1;outlineConnect=0;" vertex="1" parent="1">
                    <mxGeometry x="620" y="220" width="50" height="90" as="geometry"/>
                </mxCell>
                <mxCell id="8" value="外送人員" style="shape=umlActor;verticalLabelPosition=bottom;verticalAlign=top;html=1;outlineConnect=0;" vertex="1" parent="1">
                    <mxGeometry x="620" y="65" width="50" height="90" as="geometry"/>
                </mxCell>
            </root>
        </mxGraphModel>
    </diagram>
</mxfile>